# 3ds Max Wavefront OBJ Exporter v0.97b - (c)2007 guruware
# File Created: 11.03.2018 10:10:10

mtllib Bamboo.mtl

#
# object Bamboo02
#

v  -4.3538 397.0359 4.3538
v  4.3538 397.0359 4.3538
v  4.3538 397.0359 -4.3538
v  -4.3538 397.0359 -4.3538
v  5.6513 237.6684 5.6512
v  -5.6512 237.6684 5.6512
v  -6.3000 157.9847 6.3000
v  6.3000 157.9847 6.3000
v  5.6513 237.6684 -5.6513
v  6.3000 157.9847 -6.3000
v  -5.6512 237.6684 -5.6513
v  -6.3000 157.9847 -6.3000
v  -5.0025 317.3521 5.0025
v  5.0025 317.3521 5.0025
v  -7.5974 -1.3828 7.5974
v  7.5974 -1.3828 7.5974
v  6.9487 78.3009 6.9487
v  -6.9487 78.3009 6.9487
v  5.0025 317.3521 -5.0025
v  7.5974 -1.3828 -7.5974
v  6.9487 78.3009 -6.9487
v  -5.0025 317.3521 -5.0025
v  -7.5974 -1.3828 -7.5974
v  -6.9487 78.3009 -6.9487
# 24 vertices

vn 0.0000 1.0000 -0.0000
vn -0.0000 0.0053 1.0000
vn 0.0000 0.0053 1.0000
vn 1.0000 0.0053 -0.0000
vn 0.0000 0.0053 -1.0000
vn -1.0000 0.0053 0.0000
vn -1.0000 0.0053 -0.0000
# 7 vertex normals

vt 0.0151 0.9354 0.0000
vt 0.0511 0.9354 0.0000
vt 0.0511 0.9715 0.0000
vt 0.0151 0.9715 0.0000
vt 0.0485 0.5709 0.0000
vt 0.0160 0.5709 0.0000
vt 0.0160 0.3918 0.0000
vt 0.0485 0.3918 0.0000
vt 0.0978 0.5709 0.0000
vt 0.0654 0.5709 0.0000
vt 0.0654 0.3918 0.0000
vt 0.0978 0.3918 0.0000
vt 0.0485 0.9292 0.0000
vt 0.0160 0.9292 0.0000
vt 0.0160 0.7501 0.0000
vt 0.0485 0.7501 0.0000
vt 0.0160 0.0335 0.0000
vt 0.0485 0.0335 0.0000
vt 0.0485 0.2126 0.0000
vt 0.0160 0.2126 0.0000
vt 0.0978 0.9292 0.0000
vt 0.0654 0.9292 0.0000
vt 0.0654 0.7501 0.0000
vt 0.0978 0.7501 0.0000
vt 0.0654 0.0335 0.0000
vt 0.0978 0.0335 0.0000
vt 0.0978 0.2126 0.0000
vt 0.0654 0.2126 0.0000
# 28 texture coords

g Bamboo02
usemtl 02___Default
s 4
f 1/1/1 2/2/1 3/3/1 4/4/1 
s 8
f 5/5/2 6/6/3 7/7/2 8/8/2 
s 16
f 9/9/4 5/10/4 8/11/4 10/12/4 
s 32
f 11/5/5 9/6/5 10/7/5 12/8/5 
s 64
f 6/9/6 11/10/7 12/11/6 7/12/6 
s 8
f 2/13/3 1/14/3 13/15/3 14/16/3 
f 14/16/3 13/15/3 6/6/3 5/5/2 
f 15/17/3 16/18/3 17/19/3 18/20/2 
f 18/20/2 17/19/3 8/8/2 7/7/2 
s 16
f 3/21/4 2/22/4 14/23/4 19/24/4 
f 19/24/4 14/23/4 5/10/4 9/9/4 
f 16/25/4 20/26/4 21/27/4 17/28/4 
f 17/28/4 21/27/4 10/12/4 8/11/4 
s 32
f 4/13/5 3/14/5 19/15/5 22/16/5 
f 22/16/5 19/15/5 9/6/5 11/5/5 
f 20/17/5 23/18/5 24/19/5 21/20/5 
f 21/20/5 24/19/5 12/8/5 10/7/5 
s 64
f 1/21/7 4/22/7 22/23/7 13/24/7 
f 13/24/7 22/23/7 11/10/7 6/9/6 
f 23/25/7 15/26/7 18/27/7 24/28/6 
f 24/28/6 18/27/7 7/12/6 12/11/6 
# 21 polygons

#
# object Bamboo01
#

v  -4.3538 397.0359 4.3538
v  4.3538 397.0359 4.3538
v  4.3538 397.0359 -4.3538
v  -4.3538 397.0359 -4.3538
v  5.6513 237.6684 5.6512
v  -5.6512 237.6684 5.6512
v  -6.3000 157.9847 6.3000
v  6.3000 157.9847 6.3000
v  5.6513 237.6684 -5.6513
v  6.3000 157.9847 -6.3000
v  -5.6512 237.6684 -5.6513
v  -6.3000 157.9847 -6.3000
v  -5.0025 317.3521 5.0025
v  5.0025 317.3521 5.0025
v  -7.5974 -1.3828 7.5974
v  7.5974 -1.3828 7.5974
v  6.9487 78.3009 6.9487
v  -6.9487 78.3009 6.9487
v  5.0025 317.3521 -5.0025
v  7.5974 -1.3828 -7.5974
v  6.9487 78.3009 -6.9487
v  -5.0025 317.3521 -5.0025
v  -7.5974 -1.3828 -7.5974
v  -6.9487 78.3009 -6.9487
# 24 vertices

vn 0.0000 1.0000 -0.0000
vn -0.0000 0.0053 1.0000
vn 0.0000 0.0053 1.0000
vn 1.0000 0.0053 -0.0000
vn 0.0000 0.0053 -1.0000
vn -1.0000 0.0053 0.0000
vn -1.0000 0.0053 -0.0000
# 7 vertex normals

vt 0.1262 0.9354 0.0000
vt 0.1622 0.9354 0.0000
vt 0.1622 0.9715 0.0000
vt 0.1262 0.9715 0.0000
vt 0.1596 0.5709 0.0000
vt 0.1271 0.5709 0.0000
vt 0.1271 0.3918 0.0000
vt 0.1596 0.3918 0.0000
vt 0.2090 0.5709 0.0000
vt 0.1765 0.5709 0.0000
vt 0.1765 0.3918 0.0000
vt 0.2090 0.3918 0.0000
vt 0.1596 0.9292 0.0000
vt 0.1271 0.9292 0.0000
vt 0.1271 0.7501 0.0000
vt 0.1596 0.7501 0.0000
vt 0.1271 0.0335 0.0000
vt 0.1596 0.0335 0.0000
vt 0.1596 0.2126 0.0000
vt 0.1271 0.2126 0.0000
vt 0.2090 0.9292 0.0000
vt 0.1765 0.9292 0.0000
vt 0.1765 0.7501 0.0000
vt 0.2090 0.7501 0.0000
vt 0.1765 0.0335 0.0000
vt 0.2090 0.0335 0.0000
vt 0.2090 0.2126 0.0000
vt 0.1765 0.2126 0.0000
# 28 texture coords

g Bamboo01
usemtl 02___Default
s 4
f 25/29/8 26/30/8 27/31/8 28/32/8 
s 8
f 29/33/9 30/34/10 31/35/9 32/36/9 
s 16
f 33/37/11 29/38/11 32/39/11 34/40/11 
s 32
f 35/33/12 33/34/12 34/35/12 36/36/12 
s 64
f 30/37/13 35/38/14 36/39/13 31/40/13 
s 8
f 26/41/10 25/42/10 37/43/10 38/44/10 
f 38/44/10 37/43/10 30/34/10 29/33/9 
f 39/45/10 40/46/10 41/47/10 42/48/9 
f 42/48/9 41/47/10 32/36/9 31/35/9 
s 16
f 27/49/11 26/50/11 38/51/11 43/52/11 
f 43/52/11 38/51/11 29/38/11 33/37/11 
f 40/53/11 44/54/11 45/55/11 41/56/11 
f 41/56/11 45/55/11 34/40/11 32/39/11 
s 32
f 28/41/12 27/42/12 43/43/12 46/44/12 
f 46/44/12 43/43/12 33/34/12 35/33/12 
f 44/45/12 47/46/12 48/47/12 45/48/12 
f 45/48/12 48/47/12 36/36/12 34/35/12 
s 64
f 25/49/14 28/50/14 46/51/14 37/52/14 
f 37/52/14 46/51/14 35/38/14 30/37/13 
f 47/53/14 39/54/14 42/55/14 48/56/13 
f 48/56/13 42/55/14 31/40/13 36/39/13 
# 21 polygons

